<?xml version="1.0" encoding="UTF-8"?>
<svg version="1.1" viewBox="0 0 2048 2048" width="612" height="612" xmlns="http://www.w3.org/2000/svg">
<path transform="translate(0)" d="m0 0h2048v2048h-2048z" fill="#FAFAFA"/>
<path transform="translate(535,187)" d="m0 0h19l15 4 16 8 11 8 8 8 7 10 6 12 3 12v19l-3 20 8 1 4 4 3 6v20l-3 12-8 16-4 5-7 3-3 10-4 44v9l10 7 24 16 10 7 18 13 8 7 11 2 33 5 15 4 12 5 10 6 10 9 10 13 10 18 7 15 4 16v38l-4 25-4 15v10l6 28 3 19 2 23v30l-3 29v14l4 13 9 24 3 12 2 21v11l-2 24-6 34-7 39-6 46-2 22v29l6 34 4 24v10l-3 9-11 14-9 10-11 11-2 1h-9l-19-5-12-6-4-11-3-6-8-8-2-1-1 13-7 46-8 42-7 28-10 30-12 29-2 8-1 30-2 16-1 10 6 25 7 30 5 30 2 20v46l-3 24-7 33-12 42-10 36-8 33-7 35-3 21v12l4 11 10 15 11 13 5 5 10 9 16 6 8 4 3 3 1 3v7l-4 4-5 1-80 2-9-1-7-3-28-1-4-3v-12l7-28v-10l-2-7v-12l5-21 3-28 1-20v-41l-3-43-4-28-7-30-6-27-1-6h-1l-3 17-8 35-5 30-2 18-1 16v68l3 32 6 31v8l-2 8v11l7 25 1 10-2 5-5 2-26 1-4 2-10 1h-83l-6-3-2-2v-8l4-5 12-6 14-5 13-12 9-10 10-16 5-11 1-4v-14l-7-36-10-43-9-34-13-43-8-32-4-23-2-22v-26l2-25 5-33 7-31 6-24v-7l-4-22-1-29-5-16-9-21-8-24-10-37-8-37-6-39-3-19-4 2-6 7-6 15-5 4-19 6-9 2h-9l-14-15-7-7-9-12-4-10v-14l9-52v-29l-5-46-6-40-10-54-3-22v-26l3-17 9-27 5-14v-19l-2-13-1-13v-34l2-25 4-24 4-18v-10l-6-25-3-27v-21l3-16 8-20 9-16 9-12 10-11 10-7 11-5 15-4 34-5 11-4 15-9 15-10 17-11 21-14v-8l-2-21-2-24-2-12-11-8-5-8-6-14-3-14v-10l2-9 7-6 8-2-4-20v-16l3-12 8-16 8-10 10-9 13-8 14-6z" fill="#C6C7C7"/>
<path transform="translate(1516,185)" d="m0 0h20l15 3 16 6 11 7 10 9 7 10 8 17 4 17 1 6v34l5 5 4 9v15l-4 16-5 11-4 6-3 2-9 1-1 1-4 20-5 14v9l3 19 2 5 16 9 19 11 22 14 10 7 4 2h8l28 5 15 6 13 9 20 20 9 11 8 11 7 14 3 11 1 7v36l-2 24-3 9 1 5 12 26 5 15 5 25 2 21v18l-1 15v32l3 17 8 33 3 17v32l-4 22-7 27-10 32-8 21-13 31-3 11-3 16-8 15v24l2 23v18l-3 8-7 9-15 20-3 3-6 2-9-1-12-6-8-6-3-4-2 9-6 42-7 37-7 30-9 27-10 24-1 36-1 12-1 2-4 32-2 12-1 2v8l7 20 6 25 4 26 2 25v28l-2 23-4 24-7 27-13 38-12 36-7 29-4 25-2 21v21l9 13 11 13 9 10 13 13 3 5-1 7-5 4-6 2h-20l-10-1h-17l-20 3h-19l-9-4-5-6-1-3v-18l6-34 4-34 3-44v-52l-3-26-6-31-9-44-1-2-12 57-5 30-2 24v44l2 35 5 43 7 39v13l-4 6-6 5-7 2h-16l-21-3h-15l-13 1h-22l-8-4-2-5 1-5 6-8 21-21 11-14 7-11v-19l-2-23-5-27-8-30-21-63-9-34-5-31-1-11v-50l4-29 6-24 9-27v-5l-2-5-5-37-2-21v-22l1-4-3-12-11-25-8-24-7-29-7-39-7-50-4 5-14 9-12 4-7-1-6-5-12-17-10-12-2-6v-25l3-30v-9l-8-17-7-28-22-56-9-28-7-27-3-16-1-9v-22l3-24 9-39 2-12v-68l2-20 4-18 8-24 9-21v-7l-3-22-1-17v-14l2-22 5-16 5-10 6-8h2l2-4 16-17 8-9 12-9 11-5 12-3 34-5 10-7 18-12 21-12 19-10 3-10 2-12v-13l-7-20-1-5v-8l-13-2-6-9-5-15-3-15v-9l2-9 5-6 3-1-2-21 2-20 5-17 8-16 8-11 11-10 15-8 13-4z" fill="#C5C6C6"/>
<path transform="translate(1e3 195)" d="m0 0h27l21 4 16 6 11 6 9 8 7 11 8 17 8 18 2 5-1 5-5 9v7l8 11 8 10 5 9v9l-6 5-4 2h-3l2 11-1 16-3 7v9l4 10v12l-4 7-8 4-34 1-6 4-2 4v11l1 4v9l-5 16-1 7 5 6 3 2v3l4 2 6 11 13 10 11 9 12 14 12 17 12 20 7 15 5 15 2 11v16l-3 11v10l8 26 4 18v18l-3 14-1 7v13l1 10v23l-1 5v7l4 15v18l-4 19-2 5 1 9 2 5 1 7-1 22-5 32-8 32-15 47 1 6 10 18 10 15 14 20 16 24 11 19 6 12 1 3v14l-5 19-3 16-4 9-5 5-4 2-7-1-4-2h-10l-7 1-6-2-1-7-7 1h-9l-4-2-2-2-8 36-9 35-15 53-9 26-8 17-9 16h-3l2 1 2 5 2 15v22l-3 10-7 9-4 6-7 16-9 17-3 14-5 70-4 30-6 36-2 17v56l4 44 4 24 4 16 4 8 7 7 13 10 18 13 17 12 20 14 15 9 14 4 6 1 21 1 5 3 2 6-1 9-6 9-8 4h-10l-9-2-4 2h-12l-47-5-28-2h-44l-19 2h-11l-6-4-6-7-5-11-1-5v-13l4-13 7-16v-16l-5-27-6-23-10-28-13-30-13-29-11-28-6-21-4-23-1-13v-15l2-19 4-17 8-22 14-29 12-22 8-17 5-16 6-26 1-6v-27l-5-39-3-42-1-24v-122l-4-10-12-19-8-16-5-15-2-10v-26l5-25 6-22 7-19 9-19 11-18 9-16 5-15 3-15 3-24-4-13v-15l-5-17-10-30-9-20-12-21-15-24-12-19-8-16-4-15-1-6v-35l4-37 4-29 7-21 12-25 11-17 8-14 5-12 4-15 2-12v-42l-1-11-5-12-10-18-8-17-5-18-1-6v-26l4-20 6-16 7-13 9-10 13-8 13-6 19-5z" fill="#C5C6C6"/>
<path transform="translate(971,848)" d="m0 0h2l7 30 9 27 12 25 9 16 11 16 8 11 9 11 10 13 13 17 7 10 10 14 7 11 9 14 3 8 1 40 1 9 1 21 2 7 3 3 3 1 1-2 3 2-1 9-6 28-3 15-6 26-7 24-13 44-10 24-11 17-5 7h-2v3l5 1v-3h2l1 10 1 14v10l-1 9-4 8-8 8-3 7-2 8-12 21-2 7-5 65-7 53-6 42-1 21v16l3 49 4 32 4 20 4 12 6 8 7 7 14 11 23 16 16 10 17 11 14 7 14 4 23 2 5 1 1 7-2 8-4 5-4 2h-11l-8-2-5 2h-15l-42-5-43-3h-16l-26 2-18 1-7-6-7-14-1-5v-9l4-13 8-13v-14l-6-36-6-22-8-23-13-31-15-33-11-28-6-21-4-24v-39l5-22 7-20 12-25 10-18 8-17 6-12 8-26 3-14 1-14v-11l-4-35-4-40-2-29v-133l-5-12-11-18-9-17-4-13-2-13v-19l4-23 7-26 7-19 7-16 14-22 6-9 5-11 4-17z" fill="#C6C7C7"/>
<path transform="translate(535,187)" d="m0 0h19l15 4 16 8 11 8 8 8 7 10 6 12 3 12v19l-3 20 8 1 4 4 3 6v20l-3 12-8 16-4 5-7 3-3 10-4 44v9l10 7 24 16 10 7 18 13 8 7 11 2 33 5 15 4 12 5 10 6 10 9 10 13 10 18 7 15 4 16v38l-4 25-4 15v10l6 28 3 19 2 23v30l-3 29v14l4 13 9 24 3 12 2 21v11l-2 24-6 34-7 39-6 46-2 22v29l6 34 4 24v10l-3 9-11 14-9 10-11 11-2 1h-9l-19-5-12-6-4-11-3-6-8-8-2-1-1 13-7 46-8 42-7 28-10 30-12 29-2 8-1 30-2 16-1 10 6 25 7 30 5 30 2 20v46l-3 24-7 33-12 42-10 36-8 33-7 35-3 21v12l4 11 10 15 11 13 5 5 10 9 16 6 8 4 3 3 1 3v7l-4 4-5 1-80 2-9-1-7-3-28-1-4-3v-12l7-28v-10l-2-7v-12l5-21 3-28 1-20v-41l-3-43-4-28-7-30-6-27-1-6h-1l-3 17-8 35-5 30-2 18-1 16v68l3 32 6 31v8l-2 8v11l7 25 1 10-2 5-5 2-26 1-4 2-10 1h-83l-6-3-2-2v-8l4-5 12-6 14-5 13-12 9-10 10-16 5-11 1-4v-14l-7-36-10-43-9-34-13-43-8-32-4-23-2-22v-26l2-25 5-33 7-31 6-24v-7l-4-22-1-29-5-16-9-21-8-24-10-37-8-37-6-39-3-19-4 2-6 7-6 15-5 4-19 6-9 2h-9l-14-15-7-7-9-12-4-10v-14l9-52v-29l-5-46-6-40-10-54-3-22v-26l3-17 9-27 5-14v-19l-2-13-1-13v-34l2-25 4-24 4-18v-10l-6-25-3-27v-21l3-16 8-20 9-16 9-12 10-11 10-7 11-5 15-4 34-5 11-4 15-9 15-10 17-11 21-14v-8l-2-21-2-24-2-12-11-8-5-8-6-14-3-14v-10l2-9 7-6 8-2-4-20v-16l3-12 8-16 8-10 10-9 13-8 14-6zm62 202-8 10-1 3h-2l-7 8-8 8-13 8-11 3h-9l-11-4-11-7-12-11-7-8-9-9h-1v12l3 32 3 18-5-20-1-2-5 1-13 8-12 6-16 10-17 11-8 4v3h12v2h-2v2h-28l-25 4-10 1-16 8-9 5-6 5-12 16-6 9-9 19-3 10-2 13v21l4 31 5 21-1 16-6 28-3 30v33l3 28v21l-5 14-6 15-5 21-1 7v26l4 30 5 28 4 21 6 36 5 38 1 12v27l-8 43-1 7v18l3 6 7 9 9 10 9 11 4 3 13-2 18-6 5-3 6-18 8-7 3-2v-13l-3-14-7-16-11-23-3-12-7-49v-20l3-18 5-9 1-3 1-6 4-8 6-21 5-19 4-17 1-9v-32l-2-12-7-24-2-11v-8l3-16 7-26 4-21 3-17 1-27v-46l-3-9-8-20-6-21-1-5v-16l3-13 5-7-3 7-3 9v23l5 17 7 16 6 10 8 9 9 6h2l-1 2-10-3-7-1-1 6v12l1 18 5 19 3 14 10 29 13 29 5 11-5-4-3 33v21l3 24 5 18 5 15h-2l-3-9-8-23h-1l-2 11-4 12-3 24-2 35-6 31-7 39-3 30-2 51v45l2 27 6 39 6 28 8 30 9 30 10 23 7 17 1 4 1 36 5 25 2 7 1 8-3-1-1-10-2-2-7 28-7 37-4 32-1 12v20l3 31 5 28 7 28 8 27 10 35 8 31 2 10 7 32 3 19v17l-4 11-10 15-14 15-8 7-5 4h37v2h-39l-13 4-9 5-4 5 1 5 8 1h83l11-3 26-1 2-1-1-11-5-16-3-11v-9l2-7v-14l-4-19-3-25-2-35v-40l2-28 6-41 4-16 4-17 4-16 1-14v-28l-3-27-4-16-7-27-4-16v-13l3-14 2-28v-9l-3-14-4-12v-12l6-32 4-37 3-44 1-22 1-44v-62l13 2 2 101 2 36 4 45 4 29 5 25v14l-5 16-1 9v24l3 22 2 9v13l-4 16-7 26-3 18-2 25v34l2 12 6 27 5 18 5 31 2 24 1 18v58l-3 37-5 19v13l2 8v8l-5 21-4 18 2 2 31 1 3 2h53l37-1 4-1v-7l-5-5-13-5-7-1-37-1 39-1v-1l-9-3-8-7-7-7-13-17-6-12-2-8v-16l3-21 5-26 10-40 10-36 7-26 6-21 3-14 4-24 2-25v-25l-2-26-4-28-6-28-6-24-1-5-2 1-2 11 1 2-3-1 1-8 5-24 1-8 1-27 2-13 5-12 11-27 5-16 6-24 8-34 5-27 3-21 2-15 1-13v-44l-3-60-4-37-7-36-4-19-3-35-3-24-6-22-3 1-6 15-3 7-2 1 6-16 3-14 2-15 1-11-1-27-3-25-4 1-1 3h-2l6-10 5-11 8-19 6-17 3-10 4-9 5-25 1-29-1-10-5 2-9 4-12 3-18 1v-2h15l12-4 10-7 7-7v-2h2l8-18 6-21 1-6v-20l3 6v9l-3 16-10 30-5 11v2l2 1v52l2 23 5 28 7 24 5 16v14l-2 12-5 18-3 15-1 9v20l2 21 6 24 5 16 8 23 8 24 2 12v25l-3 29-4 18-8 20-9 19-6 15-1 5v12l7 7 6 5 3 9 3 8 8 5 20 5h7l14-14 8-10 7-9 3-6v-17l-6-34-3-19v-35l4-35 6-40 9-45 4-31v-31l-3-15-5-17-9-22v-22l2-19v-44l-2-22-2-15-5-20-1-8 1-10 3-13 4-25v-36l-4-15-7-16-6-10-4-7-7-9-9-10-8-6-14-6-18-4-7-1-18-1-19-3-11-1 1-2 9-2-2-1v-2l-8-4-5-4-45-30-8-4h-2l-2 7v-11l1-10v-21z" fill="#68686C"/>
<path transform="translate(540,190)" d="m0 0h10l13 3 10 4 16 10 9 8 11 14 4 8 2 10v29l-2 18v8l3-11 3-1 8 6 2 6v9l-2 11-5 15-7 12-5 1-2-6-3-1-1 15-3 12-7 16-9 13-12 13-10 9-11 5h-13l-10-3-11-7-19-19-11-16-4-12-4-22v-4h-4l2 10-1 4-4-3 1-4-4-2-7-15-4-13-1-18 2-8 9-3v-2h2l2 9v5h2l-4-28v-26l4-13 7-12 9-11 12-10 15-8 14-4z" fill="#C6C7C7"/>
<path transform="translate(1499,462)" d="m0 0h17l3 4 1 5 2 52v131l-2 37-3 24-2 3-5 1-5-4-7-15-8-15-6-12-10-17-14-22-9-12-18-20-5-5-16-15-4-5-3-9 1-7 4-6 9-10 8-10 3-6v-5l-9-7-11-8-12-12-7-9 1-4 19-8 25-6 31-5z" fill="#FBFBFB"/>
<path transform="translate(1540,462)" d="m0 0h17l36 4 38 7 17 5 9 5 3 2 1 4-7 8-13 13-13 10-5 5 1 7 10 11 11 15 2 4v9l-5 10-4 5-11 9-10 10-9 11-12 14-14 21-13 24-11 21-9 19-3 3-6-1-3-7-4-32-1-78v-19l1-71 1-27 2-15 3-5z" fill="#FBFBFB"/>
<path transform="translate(1e3 195)" d="m0 0h27l21 4 16 6 11 6 9 8 7 11 8 17 8 18 2 5-1 5-5 9v7l8 11 8 10 5 9v9l-6 5-11 4-3-1-1-4 6-2 11-3-2-10-13-16-6-9-1-3v-7l5-10-1-9-10-23-7-14-11-12-14-8-13-5-16-3-21-1-16 1-20 4-16 6-14 9-8 9-8 14-6 17-3 19v21l5 21 8 19 13 23 3 10 1 11v39l-3 20-4 13-8 18-10 17-5 8-12 23-5 15-4 20-5 41-1 12v33l4 17 5 12 8 14 7 10 9 15 7 11v-28l1-9v-22l-3-10-13-28-7-22-3-14v-31l3-14 5-12 9-14 7-8 8-6 8-5 9-4 2 1-8 5-9 6-8 8-10 14-7 14-4 14-1 9v16l2 13 6 21 8 19 10 22 1 5v16l-2 29 2 16 2 10 6 14 5 11 5 12 3 9 3 6 1 5 3 11h4l3 1-4 5-1 8 1 12 5 14 2 4 13 13v2l-5-2-7-5 3 15 7 24 6 16 11 22 12 19 14 20 9 11 8 10 11 14 10 13 15 23 12 19 6 12v42l1 10 1 25h13l3 4 2 7 6 1h10l3 2 2 7 18-1 8 3h7l2-5 3-8 5-24 3-9v-15l-7-14-11-18-6-9v-2h-2l-12-17-14-21-11-20-10-19-9-24-5-17-9-43-7-28-8-24-10-22-10-17-12-18-6-12-2-11 6 4 3-22v-47l-3-27-5-28-3-12v-15l5-13 7-11 5-4h6l3 3v2l-5-1-4-1-2 5h-2l-2 5-5 10-2 7v10l7 30 4 30 1 11v48l-2 17-2 8h-3l7 14 13 20 14 27 8 20 7 25 6 26 5 26 8 29 8 21 13 23 11 18 8 11 14 20 12 19 11 19 4 10v14l-5 19-3 16-4 9-5 5-4 2-7-1-4-2h-10l-7 1-6-2-1-7-7 1h-9l-4-2-2-2-8 36-9 35-15 53-9 26-8 17-9 16h-3l2 1 2 5 2 15v22l-3 10-7 9-4 6-7 16-9 17-3 14-5 70-4 30-6 36-2 17v56l4 44 4 24 4 16 4 8 7 7 13 10 18 13 17 12 20 14 15 9 14 4 6 1 21 1 5 3 2 6-1 9-6 9-8 4h-10l-9-2-4 2h-12l-47-5-28-2h-44l-19 2h-11l-6-4-6-7-5-11-1-5v-13l4-13 7-16v-16l-5-27-6-23-10-28-13-30-13-29-11-28-6-21-4-23-1-13v-15l2-19 4-17 8-22 14-29 12-22 8-17 5-16 6-26 1-6v-27l-5-39-3-42-1-24v-122l-4-10-12-19-8-16-5-15-2-10v-26l5-25 6-22 7-19 9-19 11-18 9-16 5-15 3-15 3-24-4-13v-15l-5-17-10-30-9-20-12-21-15-24-12-19-8-16-4-15-1-6v-35l4-37 4-29 7-21 12-25 11-17 8-14 5-12 4-15 2-12v-42l-1-11-5-12-10-18-8-17-5-18-1-6v-26l4-20 6-16 7-13 9-10 13-8 13-6 19-5zm-30 653-4 28-4 14-7 14-10 15-7 11-9 21-8 24-5 21-3 18v19l3 17 5 13 9 17 10 16 4 10v133l3 42 6 51 1 11v11l-2 20-7 25-5 13-10 21-12 22-13 27-6 18-5 22v39l4 24 7 24 11 27 18 40 12 30 8 25 5 23 4 25v14l-8 13-4 13v9l3 10 6 10 6 5 18-1 26-2h16l43 3 42 5h15l6-2 7 2h11l5-3 4-6 1-11-1-2-5-1-23-2-14-4-16-8-26-17-15-10-17-12-14-12-8-9-4-11-4-18-4-28-3-39-1-19v-16l1-21 6-42 7-53 5-65 4-11 9-15 2-4 2-9 4-6 7-7 3-7 1-9v-10l-1-14-1-10h-2v3l-5-1v-3h2l7-10 11-18 8-20 9-31 7-24 5-18 7-29 4-20 4-18v-6l-4-2-1 2-4-2-2-3-1-6-1-21-1-9-1-40-5-12-11-16-10-15-8-11-15-20-11-14-12-15-16-24-9-16-11-23-10-30-6-27z" fill="#68686C"/>
<path transform="translate(1421,604)" d="m0 0 5 3 18 18 12 16 8 13 10 18 8 16 12 26v9l-6 16-12 27-10 19-9 12-6 5-8 3h-7l-8-3-9-8-13-20-12-21-11-23-9-25-6-23-4-22-4-25-2-9v-6l2-2h8l9 2h14l12-4 10-6z" fill="#E60A1B"/>
<path transform="translate(1629,605)" d="m0 0 5 1 11 8 12 5 4 1h16l7-2h9l1 1v7l-4 20-4 27-6 26-8 24-14 31-14 24-12 17-9 8-3 1h-14l-8-4-7-8-8-13-8-16-9-19-8-21v-8l5-12 8-16 10-21 10-17 11-16 12-14 13-13z" fill="#E60A1B"/>
<path transform="translate(1061,1037)" d="m0 0h5l9 9 10 15 3 9 1 10 1 39 2 28 4 12 3 5-1 15-6 32-7 28-14 46-11 26-9 16-7 8-6 3-9-1-5-4-4-10-2-14-2-36v-12l1-23 3-25 6-31 17-74 8-39 4-24 3-6z" fill="#FBFBFB"/>
<path transform="translate(633,1416)" d="m0 0 5 1 5 5 4 8 7 26 5 26 2 19v42l-4 33-7 34-11 43-7 24-7 25-11 44-6 26-4 10-5 5-3 1h-7l-4-4v-13l7-36 5-28 4-35 1-14v-148l2-23 5-24 8-24 9-17z" fill="#FBFBFB"/>
<path transform="translate(458,1416)" d="m0 0 7 1 6 5 8 13 7 19 5 23 3 21 1 13v49l-1 33v53l3 38 4 30 4 22 7 31 1 10-3 7-5 4-7-1-6-5-3-9-9-39-12-46-12-43-10-40-8-40-3-28v-30l3-27 4-22 8-26z" fill="#FBFBFB"/>
<path transform="translate(1544,907)" d="m0 0h7l10 3 13 9 8 9 8 10 12 17 10 13 9 10 9 8 11 8 5 6 3 7v14l-4 14-8 16-10 13-8 8-10 7-14 5-6 1h-17l-13-3-10-5-8-7-6-12-1-7-1-22v-113l5-6z" fill="#FBFBFB"/>
<path transform="translate(1502,907)" d="m0 0h9l5 4 3 7v101l-1 28-2 13-5 10-8 8-12 5-12 2h-17l-12-3-12-6-12-11-9-12-8-14-5-14-1-5v-10l2-8 4-6 7-6 8-6 17-17 13-17 14-19 12-13 11-7z" fill="#FBFBFB"/>
<path transform="translate(674,988)" d="m0 0 3 1 4 12 6 31 5 40 2 38v27l-2 29-6 40-8 32-9 29-10 23-8 15-6 7-5 3h-7l-5-6-4-12-2-17 1-35 3-41 7-50 7-41 8-37 7-27 12-45 5-14z" fill="#FBFBFB"/>
<path transform="translate(420,988)" d="m0 0h3l7 14 6 20 13 56 8 39 5 28 4 26 5 33 2 24 1 17v47l-3 12-6 11-1 1-7-1-10-9-9-16-10-25-9-28-7-28-5-30-3-32v-55l2-28 3-28 8-42z" fill="#FBFBFB"/>
<path transform="translate(619,491)" d="m0 0 12 2 19 7 14 9 14 11 5 5v2l3 1 9 12 8 15 4 16-5 5-9-2 11 6v5l-13-1h-29l-24 3-39 8-21 5-19 3-6-1-3-3-1-4v-31l2-24 4-11 3-3h8l35 7 21 6 25 10 16 8 18 10-4-4-26-14-29-12-63-21 1-4 6-5 19-8 13-4 13-3z" fill="#FBFBFB"/>
<path transform="translate(1402,1082)" d="m0 0 4 1 9 6 11 6 15 6 9 4 1 1 4 63 4 57 1 30v14l-2 27-5 21-5 12-6 8h-7l-6-7-5-11-8-28-6-26-6-34-4-30-2-24-1-20v-36l2-34 2-5z" fill="#FBFBFB"/>
<path transform="translate(1649,1081)" d="m0 0h3l1 2 2 49v20l-2 34-4 37-8 45-8 34-8 23-5 9-5 5-5-2-6-7-5-11-4-16-2-16-1-14v-26l3-59 6-82 9-4 16-7 18-11z" fill="#FBFBFB"/>
<path transform="translate(695,704)" d="m0 0h2l3 17 4 24 4 16 7 20 1 5v18l-6 27-3 13-1 8v31l4 22 8 29 16 47 3 13v20l-3 27-3 20-6 18-13 26-4 13h-1l-2-43-3-45-3-27-5-28-6-27-3-25-2-25-3-20-6-18h-2l2-24v-10l-4-44v-9l11-23 10-30z" fill="#F8F8F8"/>
<path transform="translate(395,702)" d="m0 0h2l4 16 11 33 8 17 3 6-1 17-2 21v28l2 16-8 23-3 19-3 40-4 23-8 37-3 27-2 36-1 26v36l1 14-2-1-2-17-2-10-8-16-9-20-4-15-5-35-1-8v-19l4-16 14-45 9-34 3-19v-29l-3-19-7-25-1-5v-15l5-18 6-18 4-23 2-15z" fill="#F8F8F8"/>
<path transform="translate(966,1425)" d="m0 0h7l5 3 6 7 3 6 1 6v10l-6 51-3 40v65l3 43 3 27 9 51 1 13-3 5-5-1-6-4-6-9-7-21-7-30-7-35-8-42-5-34-2-20-1-28 2-30 5-32 6-21 7-13z" fill="#FBFBFB"/>
<path transform="translate(973,895)" d="m0 0 4 2 9 21 12 23 10 15 7 10 4 7 1 2v6l-7 10-11 13-9 12-8 14-5 11-8 26-8 31-2 2-4-1-8-9-12-18-7-14-4-13-2-12v-15l2-17 5-22 7-20 9-21 10-20 12-19z" fill="#FBFBFB"/>
<path transform="translate(455,920)" d="m0 0 4 1 7 7 10 14 14 26 7 17 4 17 1 7v43l-3 30-4 25-12 59-3 15-2 2-2-9-2-2-12-58-10-37-8-31-4-21-1-21v-17l2-21 4-18 9-27z" fill="#FBFBFB"/>
<path transform="translate(638,920)" d="m0 0 4 2 4 4 7 21 3 19 1 14v40l-3 21-9 36-8 30-5 23-7 33-5 15-3 1-3-12-12-63-4-25-4-38v-24l4-24 7-19 8-16 8-15 12-18z" fill="#FBFBFB"/>
<path transform="translate(1432,1405)" d="m0 0 1 2-13 36-6 24-4 21-2 13-1 13v39l3 26 6 27 8 27 16 44 3 11 4 16 6 25 4 24 3 32v9l-5 10-11 13-7 8-17 17-5 4-3 4 1 5 5 2h16l19-2h15l5 2-7-9-1-3v-9l4-18 1-2h2l-2 14-1 12 3 7 4 5 11 4 16 1 8-3 4-6 1-9-7-38-3-19-3-29-2-32v-51l2-17 3-19 2-10 5-23 4-16 2-11 2-7 1-14v-31l-1-11-3-15-6-20-8-38-3-13 1-3 3 5 4 13v3l1-1v-15l3-12 2 1 1-6h1v10l-4 23-1 1v8l10 37 3 16 2-3 8-31 5-18v-9l-4-21v-6l3-2 2 1v8l-1 10h2v5l4-4 4-13h2l-4 20-5 21-5 18-5 20-2 15v35l2 22 7 36 2 9 5 22 3 19 1 2 1 10v55l-2 31-5 38-5 26-3 16v9l2 5 5 4 4 1h17l10-4 8-9v-11l-3-15v-3h2l6 20v9l-7 9-7 4 12-3h15l15 2h18l6-4-2-6-23-23-9-11-8-11-3-5-1-4v-25l2-19 6-31 10-36 10-29 5-14 3-8 8-27 4-20 3-20 1-16v-22l-2-25-4-26-5-24-7-23-7-17 1-3 4 7 2 6h2l9 26 6 25 4 26 2 25v28l-2 23-4 24-7 27-13 38-12 36-7 29-4 25-2 21v21l9 13 11 13 9 10 13 13 3 5-1 7-5 4-6 2h-20l-10-1h-17l-20 3h-19l-9-4-5-6-1-3v-18l6-34 4-34 3-44v-52l-3-26-6-31-9-44-1-2-12 57-5 30-2 24v44l2 35 5 43 7 39v13l-4 6-6 5-7 2h-16l-21-3h-15l-13 1h-22l-8-4-2-5 1-5 6-8 21-21 11-14 7-11v-19l-2-23-5-27-8-30-21-63-9-34-5-31-1-11v-50l4-29 6-24 10-30 9-17z" fill="#68686C"/>
<path transform="translate(520,1045)" d="m0 0 4 1 3 8 2 17 2 39v79l-2 44-4 43-4 26-3 5-6 4-5-1-8-6-8-7-6-12-3-12-1-7v-51l3-29 7-47 10-47 6-22 6-15 6-9z" fill="#FBFBFB"/>
<path transform="translate(576,1045)" d="m0 0 4 2 6 13 7 23 10 42 5 27 6 42 2 26v45l-3 16-8 16-10 11-4 2h-9l-5-5-4-24-4-34-3-46v-101l2-32 4-18z" fill="#FBFBFB"/>
<path transform="translate(1460,341)" d="m0 0 2 1v5h2l5 24 2 13v7h2l2-14 2-7 2 1-1 18-3 22-3 14-3 6-10 7-8 3-5 2-22 12-17 12-12 8-4 1-4-1-25 4-16 6-10 7-12 11-12 13-8 10h-2l-2 5-6 10-5 17-1 7v35l3 24 2 2h-2v2h2l-3 9-11 29-6 20-3 17-1 12-1 32 2 16v23l-7 31-6 26-2 11-1 11v14l3 21 2 13 5 18 9 31 10 25 11 28 8 29 9 20 1 3-1 27-1 14v25l4 6 9 11 10 14 3 2 8-1 12-6 7-6h2v-2l4-4v-16l-2-58-1-10-5-2-7-9-4-8-4-35-2-18v-36l2-15 9-45 2-31v-25l-5-27-1-7-3-5-2-5v-7h-2l-1 5-3 5-1-3 8-23 7-26 3-14 4-36-4-19-2-11-4-20-4-13-4-7-4-13-1-6v-10h2l4 17 4 11 6 14 4 13 7 36 1 9 1 4 2 10-1 5-3-2-4 21-5 22-8 24v6l6 16 4 15 3 16 2 24v14l-2 26-6 27-5 22-2 17v13l5 55 3 13 6 10 3 4-1-15-1-7v-25l5-17 11-28v-32l3-19 7-21 9-20v-10l-2-10-1-27v-12l2-27 1-5 4 3 4 10 2 3-1 3-3-3-2-6-1 1v14l-1 9v23l2 18 3 9-5 13-8 20-5 23-2 26v12l2 17v9h-2l-2-6-1-9-1-2-3 13-5 12-3 9-1 8v22l3 16 1 9 1 73 2 24 7 49 9 45 7 26 8 23 11 28v3h2l3 5v2l-4-1-2-3 1 3 2 39 2 14 1 22 1 5-2 3-2-1-3-16-4-33-1-12v-22l1-4-3-12-11-25-8-24-7-29-7-39-7-50-4 5-14 9-12 4-7-1-6-5-12-17-10-12-2-6v-25l3-30v-9l-8-17-7-28-22-56-9-28-7-27-3-16-1-9v-22l3-24 9-39 2-12v-68l2-20 4-18 8-24 9-21v-7l-3-22-1-17v-14l2-22 5-16 5-10 6-8h2l2-4 16-17 8-9 12-9 11-5 12-3 34-5 10-7 18-12 21-12 19-10 3-10 2-12v-13l-7-20-3-24z" fill="#68686C"/>
<path transform="translate(1687,721)" d="m0 0 2 2v5h2l6 27 5 19 3 7v6l-3 8-7 25-4 25v37l3 24 6 25 5 26v32l-5 50-3 7-9 12h-2l3-27v-15l-3-14-8-21-5-12-1-3-1-39-4-19-10-25-4-8 1-11 1-8h2v-50l-1-12v-10l13-24 7-13 3-9h2l1-7z" fill="#F8F8F8"/>
<path transform="translate(1364,722)" d="m0 0 1 2h2l9 20 9 17 4 10 7 14v10l-1 13v47h2l2 10v10l-9 20-7 21-3 19v32l-13 34-3 11v25l2 16v7l-5-5-6-10-3-13-5-55v-13l3-22 9-39 2-13 1-18v-14l-2-24-5-24-7-21-1-2v-6l9-27 6-31z" fill="#F8F8F8"/>
<path transform="translate(1723,618)" d="m0 0 4 1 3 2v2h2l7 8 8 9 9 13 8 16 7 17 4 17 2 16v56l-1 9-4-2-4-11-5-24-3-14-4-8-7-1-2 16-4 12-10 21-6 20-4-2-4-7-5-18-9-35-4-17-1-10v-22l4-24 3-9 4-8 8-17z" fill="#FBFBFB"/>
<path transform="translate(364,587)" d="m0 0h3l4 15 6 23 5 24 1 12v39l-2 20-4 24-5 19-6 16-6 10-9 9-5 2-5-1-8-6-3-7-1-12v-48l2-33 3-25 5-23 8-24 11-27z" fill="#FBFBFB"/>
<path transform="translate(1478,1412)" d="m0 0 4 1 4 5 5 11 9 30 7 35 4 36 1 15v18l-3 27-4 17-5 15-6 9-2 2h-6l-6-4-6-7-4-8-5-16-2-18-1-17v-48l2-37 4-37 5-19 4-9z" fill="#FBFBFB"/>
<path transform="translate(1326,618)" d="m0 0 4 2 11 19 5 14 5 23 1 10v17l-2 15-7 32-7 26-6 16-2 1-5-10-15-35-3-12-1-12h-8l-2 5-4 15-6 28-4 9-4 1-1-3v-51l2-22 5-21 6-16 9-17 10-14 11-13z" fill="#FBFBFB"/>
<path transform="translate(1569,1412)" d="m0 0 5 1 6 12 4 19 2 14 3 42v78l-1 14-4 15-6 14-7 9-4 3h-6l-7-5-5-10-5-25-2-11-1-13v-46l3-24 6-31 8-30 7-20z" fill="#FBFBFB"/>
<path transform="translate(1010,851)" d="m0 0 5 1 10 10 9 11 9 12 10 16 7 12 13 28 13 27 11 23 8 14 6 11 11 18 7 12-1 4-6 4-16 5-10-16-16-25-12-17-14-18-13-16-10-13-11-15-11-18-9-19-7-18-3-11v-4l7-4z" fill="#FBFBFB"/>
<path transform="translate(729,592)" d="m0 0 5 2 8 11 4 13 9 27 5 24 3 21 2 31v60l-2 9-7 8-2 1h-7l-8-6-5-5-6-10-7-19-6-27-3-24-1-15v-21l2-23 5-26 8-28z" fill="#FBFBFB"/>
<path transform="translate(1591,337)" d="m0 0h1v11l-2 19-4 16-4 11v9l3 19 2 5 16 9 19 11 22 14 10 7 4 2h8l28 5 15 6 13 9 20 20 9 11 8 11 7 14 3 11 1 7v36l-2 24-3 9 1 5 12 26 5 15 5 25 2 21v18l-1 15v32l3 17 8 33 3 17v32l-4 22-7 27-10 32-8 21-13 31-3 11-3 16-8 15v24l2 23v18l-3 8-7 9-15 20-3 3-6 2-9-1-12-6-8-6-3-4-2 9-6 42-7 37-7 30-9 27-11 26-4 7-5 5h-3l6-9 11-28 5-14 9-36 8-39 7-47 3-30 1-26 1-46 2-15 3-20v-8l-4-17-6-16-3-7-1-1-3 6h-1v-8l1-7v-32l-3-21-9-27-7-17v-7l3-16v-56l3-1 1 3 1 17v33l-3 25 1 7 9 20 5 15 3 15 1 39 5 13 8 20 3 10 1 7v15l-3 25-1 2h2l2-4 8-11 2-12 4-42v-32l-5-26-6-25-3-24v-37l4-25 9-32 1-1-1-9-4-11-6-24-4-21v-14h2l4 19 1 8 2 6 2 15 3 10 2 3 3 15-3 17-7 26-3 19v25l2 19 4 26 8 35 1 9v25l-4 36-2 21-5 9-12 13-1 2-2 52-1 30 9 8 13 8 5 2 8-1 5-5 8-13 10-12 2-5v-20l-2-28v-18l4-10 4-7 7-26 6-14 5-15 5-12 4-10 9-27 6-23 4-16 3-18v-30l-6-31-7-26-1-7v-32l1-13v-29l-3-24-7-25-11-28-4-9v-5h2l3-45v-13l-3-18-6-15-9-13-12-13-9-10-3-2v-2l-4-2-11-8-8-4-17-5-21-4 1 1 5 4v2l-4-1-15-10-14-9-13-8-17-10-14-7-9-7-3-9-4-32v-11l3-1 2 13 1-1 7-37z" fill="#68686C"/>
<path transform="translate(1562,1108)" d="m0 0h34v12l-3 59-6 87-5 39-4 17-6 17-2 3h-8l-3-4-3-16-4-36-1-16v-63l3-41 6-49z" fill="#FBFBFB"/>
<path transform="translate(1457,1107)" d="m0 0 33 1 2 11 5 42 3 36 1 22v35l-1 25-4 38-4 20-3 5h-6l-6-9-6-21-4-26-4-39-4-63-3-60v-16z" fill="#FBFBFB"/>
<path transform="translate(322,797)" d="m0 0h7l12 9 4 6 3 9 3 30 1 18v39l-3 49v79l-4 8-4 1-4-14-10-53-5-24-6-24-7-31-5-26-3-26v-9l2-14 4-11 6-9z" fill="#FBFBFB"/>
<path transform="translate(963,1117)" d="m0 0 7 1 7 7 6 10 4 14 5 30 3 34 1 18v36l-2 24-5 26-5 15-7 16-4 6h-5l-4-8-5-40-3-32-2-38v-69l2-38 2-7z" fill="#FBFBFB"/>
<path transform="translate(766,798)" d="m0 0h7l9 5 5 7 3 9 2 14v22l-3 23-9 44-12 52-8 40-5 27-2 5h-3l-4-10v-64l-4-64v-26l3-44 2-18 3-9 7-8z" fill="#FBFBFB"/>
<path transform="translate(545,1083)" d="m0 0 5 1 1 1 2 84 2 50 2 32 4 35 5 25 2 9v10l-5 15-1 6v36l3 17 2 11v9l-3 15-11 35-1 8-3 8h-2l-3-20-7-25-5-17v-17l4-25v-30l-3-16-4-13 1-10 5-25 4-36 3-47 1-40 1-85z" fill="#F6F6F6"/>
<path transform="translate(675,585)" d="m0 0h9l17 2 3 1v13l-6 19-4 8-9 10-5 4-5 3-7 2-8 1h-28l-19-2-19-4-24-6-9-4-7-5-1-2v-8l4-5 19-8 24-7 26-6 24-4z" fill="#FBFBFB"/>
<path transform="translate(396,586)" d="m0 0h34l29 4 32 7 16 5 15 5 11 6 3 3 1 9-5 5-11 5-21 6-23 5-28 3h-15l-15-3-10-5-8-7-7-10-7-18-2-9v-6l3-3z" fill="#FBFBFB"/>
<path transform="translate(524,526)" d="m0 0h8l4 4 3 12 2 22v34l-4 5h-8l-17-3-39-9-27-5-20-2h-24l-9 1h-9l2-5 20-11 21-12 23-11 25-9 24-7z" fill="#FBFBFB"/>
<path transform="translate(1447,861)" d="m0 0 12 2 16 8 11 10 6 8 1 5-4 6-5 4-8 4-11 9-10 11-12 16-8 11-10 13-13 14-5 3h-9l-4-8-1-3-1-19 3-36 4-17 8-16 7-9 7-7 8-5 11-3z" fill="#FBFBFB"/>
<path transform="translate(1599,862)" d="m0 0h13l11 3 10 7 7 7 7 10 4 8 4 13 4 28 1 13v11l-2 15-4 8-7 1-6-4-15-15-8-10-12-17-9-12-11-12-10-7-14-9-1-2v-10l3-5 8-7 10-7 13-6z" fill="#FBFBFB"/>
<path transform="translate(1508,727)" d="m0 0 5 1 2 9v108l-2 31-2 9-7 1-8-6-14-15-15-10-21-10-5-6-2-6v-12l5-7 10-4 9-7 9-12 8-17 12-26 7-16h3v-2z" fill="#FBFBFB"/>
<path transform="translate(952,661)" d="m0 0 11 1 8 3 10 6 10 9 5 10 6 19 9 33 8 39v22l-3 12-9-1-5-6-14-28-9-10-16-11-10-14-7-16-2-13v-13l3-35 2-5z" fill="#FBFBFB"/>
<path transform="translate(562,836)" d="m0 0h12l13 4 10 4 12 8v17l-4 26-6 23-6 17-9 21-8 15-4 6h-2v2l-3 2-7-1-6-4-4-6v-78l1-49 4-5z" fill="#FBFBFB"/>
<path transform="translate(1544,728)" d="m0 0 6 2 11 20 10 22 10 19 1 4h2l6 8 7 6 12 5 3 6v17l-3 6-24 12-12 9-10 9-8 7-7 6h-5l-2-2-2-16-1-20v-94l1-23z" fill="#FBFBFB"/>
<path transform="translate(518,836)" d="m0 0h9l8 2 4 4 1 4v78l-1 49-7 6-9 1-6-5-8-13-8-18-8-20-5-17-7-36-1-16 7-8 14-7 10-3z" fill="#FBFBFB"/>
<path transform="translate(1370,486)" d="m0 0h8l9 6 5 4 8 10 4 7-1 5-10 8-12 8-13 10-12 11-9 10-11 15-12 21-11 21-3 3-6-1-2-4-4-25-1-9v-13l2-13 3-10 8-16 10-14 17-17 15-10 15-6z" fill="#FBFBFB"/>
<path transform="translate(1674,486)" d="m0 0 10 1 17 7 14 9 14 13 9 12 7 11 7 18 2 5 1 7v17l-5 35-2 5-5-1-7-9-14-27-12-17-13-16-13-13-19-14-14-9-2-2 1-8 8-11 7-7z" fill="#FBFBFB"/>
<path transform="translate(1093,646)" d="m0 0 5 1 7 6 4 6 2 9 1 10v21l-2 20-5 15-12 22-3 12v16l5 38 3 26v17l-2 2-4-9-10-24-12-23-8-11-6-8-1-5 3-31 1-49 10-4 13-5 5-2v-7l-5-12-10-16 3-3 13-8z" fill="#FBFBFB"/>
<path transform="translate(722,490)" d="m0 0 12 2 13 7 8 7 9 11 9 15 6 15 3 12 2 16v18l-1 14-3 19-3 11-2 7-3 4h-2l5 9 7 14 4 18 2 15v41l-2 23-3 21-4 1-11-2-1-1v-66l-3-36-4-29-2-10 1-5 3 1-1-7-3-13v-40h2l-4-23-6-20-5-10-2-6-2-1v-5l-3-1-4-6-5-9-6-4-2-6z" fill="#FAFAFA"/>
<path transform="translate(1446,1407)" d="m0 0h6l3 3 2 13v34l-2 35-1 31v20l1 43-3 5-5 4-5 2h-7l-7-4-5-6-4-9-2-9-1-9v-42l3-26 3-18 4-18 8-26 10-21z" fill="#FBFBFB"/>
<path transform="translate(1601,1407)" d="m0 0 5 1 8 13 7 19 6 20 4 20 3 24 1 13v47l-3 15-3 8-6 7-5 3h-9l-9-5-3-4v-87l-3-59v-11l1-13 4-9z" fill="#FBFBFB"/>
<path transform="translate(1335,816)" d="m0 0 6 1 4 6 4 13 1 7v30l-3 21-8 45-3 26v19l2 19 4 24v10l-4 4-4-1-4-10-11-58-7-37-5-33-2-24v-25l5-10 13-17 7-8z" fill="#FBFBFB"/>
<path transform="translate(1714,815)" d="m0 0 5 1 8 7 7 8 11 18 2 5 1 8v13l-3 34-8 45-5 25-4 21-8 35-2 6-5-1-1-2v-15l4-27v-36l-5-32-5-26-3-21-1-14v-20l3-16 5-12z" fill="#FBFBFB"/>
<path transform="translate(1275,830)" d="m0 0 6 3 6 8 5 10 5 16 5 29 5 40 6 38 7 34 8 34v5l-4 3-5-1-7-9-6-14-13-37-7-19-12-36-7-27-3-18v-31l5-18z" fill="#FBFBFB"/>
<path transform="translate(1775,832)" d="m0 0 5 2 4 8 4 14 1 11-1 25-5 25-9 30-16 45-13 37-8 16-4 6-4-1-3-2v-10l6-31 5-22 8-47 8-59 4-19 5-12 6-10z" fill="#FBFBFB"/>
<path transform="translate(967,502)" d="m0 0h9l10 4 5 4 8 16 5 15 4 23 1 15v32l-2 16-8 20-5 10h-4l-4-8-7-36-3-10-8-15-4-3-5-13-3-13-3-29v-19l8-7z" fill="#FBFBFB"/>
<path transform="translate(1526,1183)" d="m0 0 2 2 3 55 5 57 5 41v14l-4 26h-2l-1 13v21l1 13h2l4 21v9l-11 40-3 12-2 2-3-13-7-28-4-14v-8l2-6 3-18 1-10v-29l-4-18-2-14 1-20 8-64 3-38 2-33z" fill="#F6F6F6"/>
<path transform="translate(1024,783)" d="m0 0 4 1 9 10 12 17 12 19 9 20 9 24 7 25 7 32 6 34v6l-3 1-4-2-6-11-10-19-11-24-12-22-13-19-8-10-8-9-8-11-1-3v-10l5-15 2-21 1-12z" fill="#FBFBFB"/>
<path transform="translate(464,491)" d="m0 0h9l22 5 20 7 14 7 3 3-1 4-57 18-24 9-25 12-27 16-10 5h-4v-10l5-16 6-11 7-9 6-8 8-7 8-6 16-8 15-8z" fill="#FBFBFB"/>
<path transform="translate(562,752)" d="m0 0h29l15 2 10 4 5 9v25l-3 20-5 15-4 6-5 3-17-4-13-4-6-5-9-12-6-9-2-6v-31l3-7z" fill="#FBFBFB"/>
<path transform="translate(510,752)" d="m0 0h19l5 2 3 7 2 6v28l-3 8-13 19-5 6-16 4-14 4-5-1-7-10-4-9-2-13-2-27 1-5 1-8 5-5 9-3 14-2z" fill="#FBFBFB"/>
<path transform="translate(941,520)" d="m0 0 6 1 2 6 5 41 5 17 7 11 7 14 6 21 4 19v5l-1 1h-14l-16-4-7-5-10-16-8-16-7-21-2-13v-9l2-15 6-16 8-14 5-5z" fill="#FBFBFB"/>
<path transform="translate(405,481)" d="m0 0h18l17 3 8 4 1 3-16 8-14 9-13 10-14 14-9 11-11 15-12 21-12 23-3 6-4-2-3-4-1-4v-12l4-24 6-25 6-15 7-13 8-12 7-7 11-5 11-3z" fill="#E60A1B"/>
<path transform="translate(667,481)" d="m0 0h17l17 3 12 4 8 6 7 9 8 14 6 13 6 20 6 29v21l-4 8-5-2-5-10-11-23-10-16-12-16-12-14-10-9-12-10-13-8-16-8-2-2 5-4 12-4z" fill="#E60A1B"/>
<path transform="translate(1648,1051)" d="m0 0 1 4-6 12-9 12-10 8-16 8-10 3-17 2h-15l-13-2-16-8-3-1-1 26v102l2 28 2 21 2 17 2 16 4 24 1 25-2 22-1 17-2 6-3-3-2-6 1-11 3-21v-14l-6-50-5-63-2-40-2 23-2 34-3 34-7 55-1 20 3 19 2 18-5-3-4-20-1-7v-28l5-38 6-52 2-37v-114h-2l-16 8-8 2-12 1h-15l-17-3-16-6-12-8-8-8-8-14-2-9h2l7 12 8 10 5 6 14 8 11 4 10 2 10 1h11l15-2 10-4 8-6 9-10 1-2 4 2 8 10 11 7 9 3 5 1h25l16-3 13-5 9-6 5-4 8-10z" fill="#68686C"/>
<path transform="translate(937,1445)" d="m0 0 2 2v18l-4 36-1 25v14l2 29 3 25 4 28-1 4-3 2h-9l-6-5-6-11-5-12-7-27-3-22v-13l2-18 6-24 7-18 12-25 5-7z" fill="#FBFBFB"/>
<path transform="translate(512,1414)" d="m0 0 5 1 3 5 5 16 8 32 3 14 3 28-1 23-4 27-5 23-6 27-6 26h-4l-2-7v-63l1-29v-56l-4-39-1-9v-16z" fill="#FBFBFB"/>
<path transform="translate(554,689)" d="m0 0h39l15 4 12 6 3 3 3 20-1 19-3 9-1 1-16-1-19-2-25-2-7-3-3-8v-39l1-2h2z" fill="#FBFBFB"/>
<path transform="translate(505,688)" d="m0 0h23l7 1 4 9 1 13v21l-2 9-2 3-9 2-44 4-6 1h-8l-2-7-2-5v-29l4-8 7-6 13-5z" fill="#FBFBFB"/>
<path transform="translate(584,1415)" d="m0 0 8 1 1 8-5 51-1 18v28l2 67v29l-1 19h-4l-3-9-9-42-6-26-4-25v-34l4-27 8-34 7-21z" fill="#FBFBFB"/>
<path transform="translate(401,673)" d="m0 0 4 2 8 8 14 11 13 10 16 9 4 4 3 60 2 21v12l-5-2-8-7-12-13-9-17-14-34-11-33-5-21z" fill="#FBFBFB"/>
<path transform="translate(1494,367)" d="m0 0h12l7 3 3 2v55l-1 22-1 7-7 2-46 6-34 6-9 2h-5v-2l15-10 23-12 18-7 6-4 4-8 2-10 4-40 2-9z" fill="#FBFBFB"/>
<path transform="translate(687,673)" d="m0 0h2v12l-5 21-8 25-7 19-10 22-10 16-11 14-6 7-5 1-1-2v-13l3-35 2-45 17-9 12-9 15-13 10-9z" fill="#FBFBFB"/>
<path transform="translate(1e3 1448)" d="m0 0h3l4 10 1 12v20l-2 29-5 44-5 43-1 13v70l-2 7h-4l-3-14-4-35-1-13-1-33v-31l1-28 3-35 5-34 4-15 6-9z" fill="#FBFBFB"/>
<path transform="translate(1549,367)" d="m0 0h10l7 2 1 1 4 50 2 12 4 5 16 8 18 8 14 8 13 9 1 2-9-1-38-7-51-7-3-1-1-3v-82l5-3z" fill="#FBFBFB"/>
<path transform="translate(1019,624)" d="m0 0 5 2 5 12 5 17 4 26 1 12v46l-3 17-3 6-6 4-4-4-5-16-7-26-7-24-4-23v-12l4-16 8-16 5-4z" fill="#FBFBFB"/>
<path transform="translate(959,368)" d="m0 0 9 1 7 7 5 8 6 20 11 47 4 13v4l-13 4-15 4-18 8-16 9h-3l3-9 8-14 6-16 3-12 2-14v-35l-1-13v-10z" fill="#FBFBFB"/>
<path transform="translate(988,487)" d="m0 0 8 1 16 8 9 6 6 5 9 13 6 13 4 16 1 6v14l-3 14-5 12-6 9-10 10-4 2h-3l-2-36-3-25-4-19-6-18-7-13-4-5-4-9z" fill="#E60A1B"/>
<path transform="translate(369,489)" d="m0 0h2l-1 5-9 10-4 7-3 7-3 6h-2l-2 4-4 7-6 20-3 17-1 11v43l-5 12-5 9-3 1-2-1-5-16-5-32v-33l3-14 6-16 11-19 9-11 4-2 1-3 4-1v-2l16-8z" fill="#FBFBFB"/>
<path transform="translate(1109,339)" d="m0 0h2l3 6-1 19-3 7v9l4 10v12l-4 7-8 4-34 1-6 4-2 4v11l1 4v9l-5 16-1 7 5 6 3 2v3l4 2 6 11 13 10 11 9 12 14 12 17 12 20 7 15 5 15 2 11v16l-3 11v10l8 26 4 18v18l-3 14-1 7v13l1 10v23l-1 5v7l4 15v18l-4 19-2 5 1 9 2 5 1 7-1 22-5 32-8 32-15 46h-2l1-12 6-18 5-20 4-13 7-35 3-22v-16l-3-8v-11l4-17 2-11 3 1-1-6h-2l-3-16-2-6 1-10v-20l-1-11v-18l3-16 1-2v-22l-4-17-7-22v-5l-10 5-4 1-1-2 10-6 4-6 4-10v-13l-2-15-7-19-9-17-10-15-11-14-16-17-10-8-8-7-6-10-7-7-5-4v-14l2-12 1-29 5-8 8-4h34l6-4 1-2v-10l-4-12v-9l3-12v-19z" fill="#68686C"/>
<path transform="translate(433,792)" d="m0 0 4 2 11 11 8 10 10 19 5 15 4 24 2 18v16l-5-2-12-11-7-7-10-14-7-14-4-15-2-16v-19l2-15z" fill="#FBFBFB"/>
<path transform="translate(655,793)" d="m0 0h4l2 8v30l-3 18-6 15-9 14-9 11-11 12-5 4-5-1v-9l6-43 4-15 7-13 9-12 9-11z" fill="#FBFBFB"/>
<path transform="translate(355,805)" d="m0 0 10 1 3 5 6 20 4 25v22l-3 21-6 27-8 27-3 6-4 3h-2l-1-2 1-21 2-26v-50l-3-45v-10l1-2z" fill="#FBFBFB"/>
<path transform="translate(1385,539)" d="m0 0h6l4 4 4 9 8 39v9l-6 7-9 4h-13l-9-4-8-7-5-8-4-14v-8l6-9 9-10 7-6z" fill="#FBFBFB"/>
<path transform="translate(1036,486)" d="m0 0 11 1 11 7 11 9 9 9 8 10v12l-4 15-7 20-6 12-6 8-5-2-4-4-1-24-2-17-5-17-7-16-4-13v-9z" fill="#FBFBFB"/>
<path transform="translate(1660,540)" d="m0 0h8l9 5 10 8 10 12 1 2v15l-4 12-6 9-7 6-5 2h-11l-14-5-5-4-1-2 1-12 5-22 3-15 3-8z" fill="#FBFBFB"/>
<path transform="translate(1122,575)" d="m0 0 5 1 7 15 3 13v13l-3 10-6 7-4 2h-12l-14-7-10-9-7-7-7-11-1-3v-9l1-3 5-2 24-4 16-5z" fill="#FBFBFB"/>
<path transform="translate(734,803)" d="m0 0 5 1 4 4v18l-3 40v48l3 38v8h-4l-5-7-7-19-6-22-4-28v-33l3-15 5-16 5-12z" fill="#FBFBFB"/>
<path transform="translate(524,641)" d="m0 0h9l4 4 3 6v24l-1 2h-2v6l-1 1-34 2-14 3-15 5-5-1v-9l2-15 3-6 5-5 8-7 16-6 15-3z" fill="#FBFBFB"/>
<path transform="translate(559,641)" d="m0 0 14 1 17 3 12 5 11 8 6 8 2 9 1 14-1 7-5-2-13-5-14-3-34-2-4-7-1-5v-24l6-6z" fill="#FBFBFB"/>
<path transform="translate(796,858)" d="m0 0h2l3 10v14l-2 17-5 32-11 64-5 36-3 27-4 1-11-6-2-2 1-16 5-33 8-37 9-36 9-42 5-28z" fill="#FBFBFB"/>
<path transform="translate(296,858)" d="m0 0h2l4 16 6 31 10 44 9 39 5 28 3 19v16l-6 5-5 2h-4l-2-11-6-48-7-43-5-28-6-39-1-12v-13z" fill="#FBFBFB"/>
<path transform="translate(331,642)" d="m0 0 4 1-1 11-4 24-3 31v78l-8 4-5-1-3-6-4-25-2-25v-15l2-24 4-17 5-13 9-16z" fill="#FBFBFB"/>
<path transform="translate(1516,185)" d="m0 0h20l15 3 16 6 11 7 10 9 7 10 8 17 4 17 1 6v34l5 5 4 9v15l-4 16-5 11-4 6-3 2h-8l-1-4 9-3 6-12 4-15v-17l-4-9v-2h-2l-2 9-5 13-6 12-8 11-3 5h-2l1-5 10-16 6-14 5-16 2-13v-18l-3-18-6-18-7-11-12-12-13-8-12-5-9-2-10-1h-11l-17 3-15 6-11 7-8 8-7 10-6 12-5 15-1 6v32l4 17 8 18 11 21-1 4-7-10-10-18-8-19-1-5-2 1-3 8v14l3 14 6 15 2 6 5-1 3 6h-8l-5-3-5-10-5-16-2-11v-9l2-9 5-6 3-1-2-21 2-20 5-17 8-16 8-11 11-10 15-8 13-4z" fill="#68686C"/>
<path transform="translate(1125,845)" d="m0 0h9l4 6 2 9v12l-3 26-5 26-9 35-1 2-4-1-3-11-1-7-1-20v-13l1-20 3-22 5-19z" fill="#FBFBFB"/>
<path transform="translate(401,656)" d="m0 0 8 1 17 3h23l6-1h10l-1 13-1 6-2 26-2 7-11-6-14-9-16-12-16-16-2-4v-7z" fill="#FBFBFB"/>
<path transform="translate(685,656)" d="m0 0 5 1v9l-7 8-10 9-11 9-17 12-14 8-2-11v-13l-2-15-1-5v-8l1-1 17 1h21l16-3z" fill="#FBFBFB"/>
<path transform="translate(427,888)" d="m0 0 4 1 8 15 3 9v23l-4 17-8 24-4 5-5-2-3-5v-49l2-24 3-12z" fill="#FBFBFB"/>
<path transform="translate(668,889)" d="m0 0h5l2 16 1 11 1 24v33l-4 7-2 2h-3l-5-12-9-29-3-10v-12l5-17 5-9 3-3z" fill="#FBFBFB"/>
<path transform="translate(1090,527)" d="m0 0 4 2 10 10 12 17 7 13-1 4-22 7-15 3h-10l1-9 11-33z" fill="#FBFBFB"/>
<path transform="translate(1122,781)" d="m0 0h9l7 3 4 5 2 6v22l-5 12-3 5-10 2-6-5-4-11-3-15v-12l2-7z" fill="#FBFBFB"/>
<path transform="translate(1e3 387)" d="m0 0 7 6 9 10 7 7 9 13 7 14 5 17 2 21h-4l-8-10-12-20-11-17-8-17-3-14z" fill="#FBFBFB"/>
<path transform="translate(496,411)" d="m0 0h5l11 11 7 10 11 30 7 16-1 5-1 1-8-1-7-4-5-4-8-15-7-19-5-22v-7z" fill="#FBFBFB"/>
<path transform="translate(591,408)" d="m0 0h2l-1 13-4 18-6 16-8 16-8 10-4 3h-7l-4-1 1-7 7-15 10-28 4-6 16-17z" fill="#FBFBFB"/>
<path transform="translate(1057,608)" d="m0 0h3l10 14 9 9 7 6v2h2l-1 5-11 8-6 3h-13l-7-3-3-4-1-5v-11l3-10 3-6z" fill="#FBFBFB"/>
<path transform="translate(1130,652)" d="m0 0 5 1 3 4 4 16 1 6v13l-11 11h-9l-3-3v-2h-2l-1-2v-40l6-2z" fill="#FBFBFB"/>
<path transform="translate(1135,718)" d="m0 0 3 3 2 10 1 14v18l-4 7-7 6h-10l-6-4v-11l3-12 8-17 7-11z" fill="#FBFBFB"/>
<path transform="translate(1627,812)" d="m0 0h7l6 2 2 3 1 7v23l-4 11h-2v2l-6-1-8-4-6-7-1-4 2-24 2-6z" fill="#FBFBFB"/>
<path transform="translate(1418,812)" d="m0 0h9l5 2 2 6 1 16v12l-5 5-8 6-6 1-4-5-3-9-1-13 2-13 2-5 2-2z" fill="#FBFBFB"/>
<path transform="translate(901,609)" d="m0 0h5l4 13 8 24 6 12 2 8v11l-4 4-4 1-5-5-6-10-5-13-3-15v-27z" fill="#FBFBFB"/>
<path transform="translate(479,443)" d="m0 0 4 2 7 25v4l-21-1-30-4v-3l8-5 25-14z" fill="#FBFBFB"/>
<path transform="translate(604,443)" d="m0 0 5 1 18 10 11 6 9 6v3l-2 1-34 3h-15l2-10 5-19z" fill="#FBFBFB"/>
<path transform="translate(1054,659)" d="m0 0 9 1 5 3 7 9 8 14 1 8-13 6-12 3-2-6-4-30v-7z" fill="#FBFBFB"/>
<path transform="translate(1636,1333)" d="m0 0h2l1 4v14l1 7-2 24-5 35-3 3-1-11 1-4v-12l2-15 3-43z" fill="#68686C"/>
<path transform="translate(993,297)" d="m0 0 7 1 5 4 4 6v3l-4-2-5-6-6-2-10 3-9 6-3 5v11l4 10 7 10 9 8 6 3-2 2-10-4-7-6-9-14-3-9v-10l4-8 7-6 9-4z" fill="#68686C"/>
<path transform="translate(1526,729)" d="m0 0h1v106l-2 2-1-6v-49l1-46z" fill="#68686C"/>
<path transform="translate(1713,595)" d="m0 0 2 2-1 10-4 19-6 16-4 15h-2v-9l5-17 6-18z" fill="#68686C"/>
<path transform="translate(1522,349)" d="m0 0h10l15 4 8 4-3 1-18-4h-14l-15 3h-8l1-2z" fill="#68686C"/>
<path transform="translate(517,1350)" d="m0 0 2 1 1 6v31l-2 9-4 6-10 4-1-2 9-5 3-8 1-6z" fill="#68686C"/>
<path transform="translate(1689,660)" d="m0 0 1 2-2 15-3 10-2 9-7 22-9 21-2 1 1-6 7-17 7-22 6-27h2v-7z" fill="#EBEBEB"/>
<path transform="translate(461,1361)" d="m0 0h1l3 24 4 12 4 6 8 4 8 2v1h-10l-10-5-5-8-3-12-1-8v-15z" fill="#68686C"/>
<path transform="translate(403,520)" d="m0 0h2v2l-5 4-2 3h-2l-2 4-6 7-3 6h-3l-1 5-3 4h-2l-2 6-4 3-3 7-7 11-2 4-1-3 9-17 10-15 10-13 14-15z" fill="#EFF0F0"/>
<path transform="translate(637,1360)" d="m0 0 2 2-1 18-3 15-5 8-5 4-8 3h-7l3-2 10-4 5-4 4-9 3-15z" fill="#68686C"/>
<path transform="translate(580,1350)" d="m0 0h1l1 33 2 12 3 5 8 5v1l-7-1-5-4-3-6-2-15 1-27z" fill="#68686C"/>
<path transform="translate(1009,370)" d="m0 0 2 1 5 13 6 8 7 6 10 5v2l-11-3-8-6-6-7-4-9-2-9z" fill="#68686C"/>
<path transform="translate(1526,374)" d="m0 0 2 1v35l-1 19h-2l-1-2 1-39z" fill="#68686C"/>
<path transform="translate(981,1776)" d="m0 0 2 1 2 18 3 9 3 3 9 1 1 2-3 1h-8l-4-2-4-9-1-5z" fill="#68686C"/>
<path transform="translate(1439,1360)" d="m0 0h1v21l-1 11-3 7h-1l1-24 2-12z" fill="#68686C"/>
<path transform="translate(1526,1183)" d="m0 0 2 2 1 16v22h-1l-1-15-1 5-1 14h-1v-19z" fill="#C6C7C7"/>
<path transform="translate(1124,715)" d="m0 0 2 1-10 18-8 21-2 5h-1l1-9 8-19 6-12z" fill="#68686C"/>
<path transform="translate(1640,1325)" d="m0 0h1v34l-1 12h-1v-17l-1-3v-18l-3-1h2l2-5z" fill="#C6C7C7"/>
<path transform="translate(1088,627)" d="m0 0 5 3 10 7 10 4 9 1 1 3-4 1-8-2-14-7-9-8z" fill="#68686C"/>
<path transform="translate(1612,1361)" d="m0 0 2 3 2 11 1 11v12l-2-3-2-8-1-11z" fill="#68686C"/>
<path transform="translate(1366,720)" d="m0 0 3 2 3 8 8 17 7 15-1 2-9-16-11-24z" fill="#68686C"/>
<path transform="translate(609,1315)" d="m0 0v3l-4 5-8 5-9 3-5-1v-2l12-3 11-7z" fill="#68686C"/>
<path transform="translate(1284,795)" d="m0 0 1 3-2 7v9l4 10-1 2-6-8-1-2 1-11z" fill="#68686C"/>
<path transform="translate(388,1097)" d="m0 0h1l1 26 1 14-2-1-2-17-2-12 2 1z" fill="#C6C7C7"/>
<path transform="translate(490,1317)" d="m0 0 11 7 8 3 6 1v2l-5 1-10-4-8-6z" fill="#68686C"/>
<path transform="translate(1689,660)" d="m0 0 1 2-2 15-2 8h-2v-7l2-10h2v-7z" fill="#F0F0F0"/>
<path transform="translate(403,520)" d="m0 0h2v2l-5 4-2 3h-2l-2 4-6 7-4 2 2-4 14-15z" fill="#E6E7E7"/>
<path transform="translate(1e3 822)" d="m0 0 3 3 1 4v10l-1 4h-2z" fill="#68686C"/>
<path transform="translate(1767,802)" d="m0 0 2 2 2 6-1 7-4 6h-2l3-10z" fill="#68686C"/>
<path transform="translate(1564,1373)" d="m0 0h1l4 21v5l-2-1-3-11z" fill="#68686C"/>
<path transform="translate(1412,1326)" d="m0 0h1l1 7-1 3v34h-1l-1-11v-27z" fill="#C6C7C7"/>
<path transform="translate(475,1321)" d="m0 0h2l-2 5-8 5h-6l3-3 9-5z" fill="#68686C"/>
<path transform="translate(1317,803)" d="m0 0 2 2-1 10-5 8-2 2-3-1 7-8z" fill="#68686C"/>
<path transform="translate(1487,1374)" d="m0 0h1v11l-4 15-2-1z" fill="#68686C"/>
<path transform="translate(366,498)" d="m0 0v3l-9 15-2-1 3-7 4-6z" fill="#C6C7C7"/>
<path transform="translate(622,1322)" d="m0 0 5 2 10 6v1l-7-1-6-4z" fill="#68686C"/>
<path transform="translate(1662,743)" d="m0 0h2l-1 4-8 16-3 3 1-5 8-16z" fill="#E5E5E5"/>
<path transform="translate(707,1092)" d="m0 0h1l1 14h2l-3 12h-1z" fill="#C6C7C7"/>
<path transform="translate(1683,682)" d="m0 0 2 3-1 9-2 6-3 1z" fill="#E6E7E7"/>
<path transform="translate(542,817)" d="m0 0h7l2 1v2l-11 2-3 1 2-4z" fill="#68686C"/>
<path transform="translate(1044,536)" d="m0 0 2 4 2 8v8l-2-1-2-12z" fill="#E6E6E6"/>
<path transform="translate(664,460)" d="m0 0 5 2 8 6 6 1v1h-7l-5-3-7-6z" fill="#C6C7C7"/>
<path transform="translate(551,1474)" d="m0 0h1v8l-3 8h-2v-8l2-1z" fill="#C6C7C7"/>
<path transform="translate(363,572)" d="m0 0h2l-2 5-5 9-1-3z" fill="#E7E7E7"/>
</svg>
